<mxfile host="app.diagrams.net" agent="Mozilla/5.0 (X11; Linux x86_64) AppleWebKit/537.36 (KHTML, like Gecko) Chrome/129.0.0.0 Safari/537.36" version="24.7.17">
  <diagram name="Pagina-1" id="8oRIxMp05fM2Ib0slp5O">
    <mxGraphModel dx="1434" dy="793" grid="1" gridSize="10" guides="1" tooltips="1" connect="1" arrows="1" fold="1" page="1" pageScale="1" pageWidth="1169" pageHeight="827" math="1" shadow="0">
      <root>
        <mxCell id="0" />
        <mxCell id="1" parent="0" />
        <mxCell id="CwHO6hKkY0x4LPlJkO1Z-6" style="edgeStyle=orthogonalEdgeStyle;rounded=1;orthogonalLoop=1;jettySize=auto;html=1;exitX=0;exitY=0.5;exitDx=0;exitDy=0;entryX=1;entryY=0.5;entryDx=0;entryDy=0;endArrow=none;endFill=0;" parent="1" source="bO4HwjNe5tgWnpyrZHRT-1" target="CwHO6hKkY0x4LPlJkO1Z-5" edge="1">
          <mxGeometry relative="1" as="geometry" />
        </mxCell>
        <mxCell id="bO4HwjNe5tgWnpyrZHRT-1" value="" style="rounded=1;whiteSpace=wrap;html=1;fillColor=#f5f5f5;fontColor=#333333;strokeColor=#666666;" parent="1" vertex="1">
          <mxGeometry x="190" y="240" width="30" height="80" as="geometry" />
        </mxCell>
        <mxCell id="bO4HwjNe5tgWnpyrZHRT-7" style="edgeStyle=orthogonalEdgeStyle;rounded=1;orthogonalLoop=1;jettySize=auto;html=1;exitX=1;exitY=0.5;exitDx=0;exitDy=0;entryX=0;entryY=0.5;entryDx=0;entryDy=0;endArrow=none;endFill=0;" parent="1" source="9LMf7SJtemVIQQQjcJtE-13" target="bO4HwjNe5tgWnpyrZHRT-4" edge="1">
          <mxGeometry relative="1" as="geometry" />
        </mxCell>
        <mxCell id="9LMf7SJtemVIQQQjcJtE-12" style="edgeStyle=orthogonalEdgeStyle;rounded=1;orthogonalLoop=1;jettySize=auto;html=1;exitX=0;exitY=0.5;exitDx=0;exitDy=0;entryX=1;entryY=0.5;entryDx=0;entryDy=0;endArrow=none;endFill=0;" parent="1" source="bO4HwjNe5tgWnpyrZHRT-3" target="9LMf7SJtemVIQQQjcJtE-9" edge="1">
          <mxGeometry relative="1" as="geometry" />
        </mxCell>
        <mxCell id="bO4HwjNe5tgWnpyrZHRT-3" value="" style="rounded=1;whiteSpace=wrap;html=1;fillColor=#f5f5f5;fontColor=#333333;strokeColor=#666666;" parent="1" vertex="1">
          <mxGeometry x="270" y="240" width="30" height="80" as="geometry" />
        </mxCell>
        <mxCell id="bO4HwjNe5tgWnpyrZHRT-4" value="" style="rounded=1;whiteSpace=wrap;html=1;fillColor=#f5f5f5;fontColor=#333333;strokeColor=#666666;" parent="1" vertex="1">
          <mxGeometry x="350" y="240" width="30" height="80" as="geometry" />
        </mxCell>
        <mxCell id="bO4HwjNe5tgWnpyrZHRT-10" value="" style="rounded=1;whiteSpace=wrap;html=1;fillColor=#f5f5f5;fontColor=#333333;strokeColor=#666666;" parent="1" vertex="1">
          <mxGeometry x="480" y="240" width="30" height="80" as="geometry" />
        </mxCell>
        <mxCell id="9LMf7SJtemVIQQQjcJtE-41" style="edgeStyle=orthogonalEdgeStyle;rounded=1;orthogonalLoop=1;jettySize=auto;html=1;exitX=1;exitY=0.5;exitDx=0;exitDy=0;entryX=0;entryY=0.5;entryDx=0;entryDy=0;endArrow=none;endFill=0;" parent="1" source="bO4HwjNe5tgWnpyrZHRT-23" target="9LMf7SJtemVIQQQjcJtE-39" edge="1">
          <mxGeometry relative="1" as="geometry" />
        </mxCell>
        <mxCell id="qqz8z3w6AMqJboERfU2k-1" style="edgeStyle=orthogonalEdgeStyle;rounded=1;orthogonalLoop=1;jettySize=auto;html=1;exitX=0;exitY=0.5;exitDx=0;exitDy=0;entryX=1;entryY=0.5;entryDx=0;entryDy=0;endArrow=none;endFill=0;" parent="1" source="bO4HwjNe5tgWnpyrZHRT-23" target="bO4HwjNe5tgWnpyrZHRT-10" edge="1">
          <mxGeometry relative="1" as="geometry">
            <Array as="points">
              <mxPoint x="540" y="120" />
              <mxPoint x="540" y="280" />
            </Array>
          </mxGeometry>
        </mxCell>
        <mxCell id="bO4HwjNe5tgWnpyrZHRT-23" value="" style="rounded=1;whiteSpace=wrap;html=1;fillColor=#f5f5f5;fontColor=#333333;strokeColor=#666666;" parent="1" vertex="1">
          <mxGeometry x="560" y="80" width="30" height="80" as="geometry" />
        </mxCell>
        <mxCell id="qqz8z3w6AMqJboERfU2k-2" style="edgeStyle=orthogonalEdgeStyle;rounded=1;orthogonalLoop=1;jettySize=auto;html=1;exitX=0;exitY=0.5;exitDx=0;exitDy=0;endArrow=none;endFill=0;" parent="1" edge="1">
          <mxGeometry relative="1" as="geometry">
            <mxPoint x="509.9999999999999" y="280" as="targetPoint" />
            <Array as="points">
              <mxPoint x="540" y="440" />
              <mxPoint x="540" y="280" />
            </Array>
            <mxPoint x="560" y="440.0000000000001" as="sourcePoint" />
          </mxGeometry>
        </mxCell>
        <mxCell id="bO4HwjNe5tgWnpyrZHRT-31" value="$$\hat X$$" style="rounded=1;whiteSpace=wrap;html=1;fontSize=14;fillColor=#ffe6cc;strokeColor=#d79b00;" parent="1" vertex="1">
          <mxGeometry x="800" y="80" width="30" height="80" as="geometry" />
        </mxCell>
        <mxCell id="9LMf7SJtemVIQQQjcJtE-10" style="edgeStyle=orthogonalEdgeStyle;rounded=1;orthogonalLoop=1;jettySize=auto;html=1;exitX=0;exitY=0.5;exitDx=0;exitDy=0;entryX=1;entryY=0.5;entryDx=0;entryDy=0;endArrow=none;endFill=0;" parent="1" source="9LMf7SJtemVIQQQjcJtE-9" target="bO4HwjNe5tgWnpyrZHRT-1" edge="1">
          <mxGeometry relative="1" as="geometry" />
        </mxCell>
        <mxCell id="9LMf7SJtemVIQQQjcJtE-21" style="edgeStyle=orthogonalEdgeStyle;rounded=1;orthogonalLoop=1;jettySize=auto;html=1;exitX=0.5;exitY=0;exitDx=0;exitDy=0;entryX=0.5;entryY=0;entryDx=0;entryDy=0;endArrow=none;endFill=0;curved=1;" parent="1" source="9LMf7SJtemVIQQQjcJtE-9" target="9LMf7SJtemVIQQQjcJtE-13" edge="1">
          <mxGeometry relative="1" as="geometry">
            <Array as="points">
              <mxPoint x="245" y="220" />
              <mxPoint x="325" y="220" />
            </Array>
          </mxGeometry>
        </mxCell>
        <mxCell id="9LMf7SJtemVIQQQjcJtE-9" value="" style="shape=orEllipse;perimeter=ellipsePerimeter;whiteSpace=wrap;html=1;backgroundOutline=1;rounded=1;" parent="1" vertex="1">
          <mxGeometry x="240" y="275" width="10" height="10" as="geometry" />
        </mxCell>
        <mxCell id="9LMf7SJtemVIQQQjcJtE-14" value="" style="edgeStyle=orthogonalEdgeStyle;rounded=1;orthogonalLoop=1;jettySize=auto;html=1;exitX=1;exitY=0.5;exitDx=0;exitDy=0;entryX=0;entryY=0.5;entryDx=0;entryDy=0;endArrow=none;endFill=0;" parent="1" source="bO4HwjNe5tgWnpyrZHRT-3" target="9LMf7SJtemVIQQQjcJtE-13" edge="1">
          <mxGeometry relative="1" as="geometry">
            <mxPoint x="320" y="285" as="sourcePoint" />
            <mxPoint x="360" y="285" as="targetPoint" />
          </mxGeometry>
        </mxCell>
        <mxCell id="9LMf7SJtemVIQQQjcJtE-24" style="edgeStyle=orthogonalEdgeStyle;rounded=1;orthogonalLoop=1;jettySize=auto;html=1;exitX=0.5;exitY=0;exitDx=0;exitDy=0;entryX=0.5;entryY=0;entryDx=0;entryDy=0;curved=1;endArrow=none;endFill=0;" parent="1" source="9LMf7SJtemVIQQQjcJtE-13" target="9LMf7SJtemVIQQQjcJtE-22" edge="1">
          <mxGeometry relative="1" as="geometry">
            <Array as="points">
              <mxPoint x="325" y="220" />
              <mxPoint x="405" y="220" />
            </Array>
          </mxGeometry>
        </mxCell>
        <mxCell id="9LMf7SJtemVIQQQjcJtE-13" value="" style="shape=orEllipse;perimeter=ellipsePerimeter;whiteSpace=wrap;html=1;backgroundOutline=1;rounded=1;" parent="1" vertex="1">
          <mxGeometry x="320" y="275" width="10" height="10" as="geometry" />
        </mxCell>
        <mxCell id="9LMf7SJtemVIQQQjcJtE-23" style="edgeStyle=orthogonalEdgeStyle;rounded=1;orthogonalLoop=1;jettySize=auto;html=1;exitX=0;exitY=0.5;exitDx=0;exitDy=0;entryX=1;entryY=0.5;entryDx=0;entryDy=0;endArrow=none;endFill=0;" parent="1" source="9LMf7SJtemVIQQQjcJtE-22" target="bO4HwjNe5tgWnpyrZHRT-4" edge="1">
          <mxGeometry relative="1" as="geometry" />
        </mxCell>
        <mxCell id="9LMf7SJtemVIQQQjcJtE-25" style="edgeStyle=orthogonalEdgeStyle;rounded=1;orthogonalLoop=1;jettySize=auto;html=1;exitX=1;exitY=0.5;exitDx=0;exitDy=0;entryX=0;entryY=0.5;entryDx=0;entryDy=0;dashed=1;dashPattern=12 12;endArrow=none;endFill=0;" parent="1" source="9LMf7SJtemVIQQQjcJtE-22" target="bO4HwjNe5tgWnpyrZHRT-10" edge="1">
          <mxGeometry relative="1" as="geometry" />
        </mxCell>
        <mxCell id="9LMf7SJtemVIQQQjcJtE-22" value="" style="shape=orEllipse;perimeter=ellipsePerimeter;whiteSpace=wrap;html=1;backgroundOutline=1;rounded=1;" parent="1" vertex="1">
          <mxGeometry x="400" y="275" width="10" height="10" as="geometry" />
        </mxCell>
        <mxCell id="9LMf7SJtemVIQQQjcJtE-42" style="edgeStyle=orthogonalEdgeStyle;rounded=1;orthogonalLoop=1;jettySize=auto;html=1;exitX=1;exitY=0.5;exitDx=0;exitDy=0;entryX=0;entryY=0.5;entryDx=0;entryDy=0;endArrow=none;endFill=0;" parent="1" source="9LMf7SJtemVIQQQjcJtE-39" target="9LMf7SJtemVIQQQjcJtE-40" edge="1">
          <mxGeometry relative="1" as="geometry" />
        </mxCell>
        <mxCell id="cpac1XOcsCDOn6eUwA3J-27" style="edgeStyle=orthogonalEdgeStyle;rounded=0;orthogonalLoop=1;jettySize=auto;html=1;exitX=0.5;exitY=0;exitDx=0;exitDy=0;entryX=0.5;entryY=0;entryDx=0;entryDy=0;curved=1;endArrow=none;endFill=0;" parent="1" source="9LMf7SJtemVIQQQjcJtE-39" target="9LMf7SJtemVIQQQjcJtE-44" edge="1">
          <mxGeometry relative="1" as="geometry">
            <Array as="points">
              <mxPoint x="615" y="60" />
              <mxPoint x="695" y="60" />
            </Array>
          </mxGeometry>
        </mxCell>
        <mxCell id="9LMf7SJtemVIQQQjcJtE-39" value="" style="shape=orEllipse;perimeter=ellipsePerimeter;whiteSpace=wrap;html=1;backgroundOutline=1;rounded=1;" parent="1" vertex="1">
          <mxGeometry x="610" y="115" width="10" height="10" as="geometry" />
        </mxCell>
        <mxCell id="cpac1XOcsCDOn6eUwA3J-5" style="edgeStyle=orthogonalEdgeStyle;rounded=0;orthogonalLoop=1;jettySize=auto;html=1;exitX=1;exitY=0.5;exitDx=0;exitDy=0;entryX=0;entryY=0.5;entryDx=0;entryDy=0;endArrow=none;endFill=0;" parent="1" source="9LMf7SJtemVIQQQjcJtE-40" target="9LMf7SJtemVIQQQjcJtE-44" edge="1">
          <mxGeometry relative="1" as="geometry" />
        </mxCell>
        <mxCell id="9LMf7SJtemVIQQQjcJtE-40" value="" style="rounded=1;whiteSpace=wrap;html=1;fillColor=#f5f5f5;fontColor=#333333;strokeColor=#666666;" parent="1" vertex="1">
          <mxGeometry x="640" y="80" width="30" height="80" as="geometry" />
        </mxCell>
        <mxCell id="cpac1XOcsCDOn6eUwA3J-6" style="edgeStyle=orthogonalEdgeStyle;rounded=0;orthogonalLoop=1;jettySize=auto;html=1;exitX=1;exitY=0.5;exitDx=0;exitDy=0;entryX=0;entryY=0.5;entryDx=0;entryDy=0;endArrow=none;endFill=0;dashed=1;dashPattern=12 12;" parent="1" source="9LMf7SJtemVIQQQjcJtE-44" target="bO4HwjNe5tgWnpyrZHRT-31" edge="1">
          <mxGeometry relative="1" as="geometry" />
        </mxCell>
        <mxCell id="9LMf7SJtemVIQQQjcJtE-44" value="" style="shape=orEllipse;perimeter=ellipsePerimeter;whiteSpace=wrap;html=1;backgroundOutline=1;rounded=1;" parent="1" vertex="1">
          <mxGeometry x="690" y="115" width="10" height="10" as="geometry" />
        </mxCell>
        <mxCell id="CwHO6hKkY0x4LPlJkO1Z-5" value="$$\Theta^\prime$$" style="rounded=1;whiteSpace=wrap;html=1;fillStyle=auto;fillColor=#dae8fc;strokeColor=#6c8ebf;" parent="1" vertex="1">
          <mxGeometry x="110" y="240" width="30" height="80" as="geometry" />
        </mxCell>
        <mxCell id="cpac1XOcsCDOn6eUwA3J-7" style="edgeStyle=orthogonalEdgeStyle;rounded=1;orthogonalLoop=1;jettySize=auto;html=1;exitX=1;exitY=0.5;exitDx=0;exitDy=0;entryX=0;entryY=0.5;entryDx=0;entryDy=0;endArrow=none;endFill=0;" parent="1" source="cpac1XOcsCDOn6eUwA3J-8" target="cpac1XOcsCDOn6eUwA3J-11" edge="1">
          <mxGeometry relative="1" as="geometry" />
        </mxCell>
        <mxCell id="cpac1XOcsCDOn6eUwA3J-8" value="" style="rounded=1;whiteSpace=wrap;html=1;fillColor=#f5f5f5;fontColor=#333333;strokeColor=#666666;" parent="1" vertex="1">
          <mxGeometry x="560" y="400" width="30" height="80" as="geometry" />
        </mxCell>
        <mxCell id="cpac1XOcsCDOn6eUwA3J-9" value="$$\hat N$$" style="rounded=1;whiteSpace=wrap;html=1;fontSize=14;fillColor=#ffe6cc;strokeColor=#d79b00;" parent="1" vertex="1">
          <mxGeometry x="800" y="400" width="30" height="80" as="geometry" />
        </mxCell>
        <mxCell id="cpac1XOcsCDOn6eUwA3J-10" style="edgeStyle=orthogonalEdgeStyle;rounded=1;orthogonalLoop=1;jettySize=auto;html=1;exitX=1;exitY=0.5;exitDx=0;exitDy=0;entryX=0;entryY=0.5;entryDx=0;entryDy=0;endArrow=none;endFill=0;" parent="1" source="cpac1XOcsCDOn6eUwA3J-11" target="cpac1XOcsCDOn6eUwA3J-13" edge="1">
          <mxGeometry relative="1" as="geometry" />
        </mxCell>
        <mxCell id="cpac1XOcsCDOn6eUwA3J-11" value="" style="shape=orEllipse;perimeter=ellipsePerimeter;whiteSpace=wrap;html=1;backgroundOutline=1;rounded=1;" parent="1" vertex="1">
          <mxGeometry x="610" y="435" width="10" height="10" as="geometry" />
        </mxCell>
        <mxCell id="cpac1XOcsCDOn6eUwA3J-12" style="edgeStyle=orthogonalEdgeStyle;rounded=0;orthogonalLoop=1;jettySize=auto;html=1;exitX=1;exitY=0.5;exitDx=0;exitDy=0;entryX=0;entryY=0.5;entryDx=0;entryDy=0;endArrow=none;endFill=0;" parent="1" source="cpac1XOcsCDOn6eUwA3J-13" target="cpac1XOcsCDOn6eUwA3J-15" edge="1">
          <mxGeometry relative="1" as="geometry" />
        </mxCell>
        <mxCell id="cpac1XOcsCDOn6eUwA3J-13" value="" style="rounded=1;whiteSpace=wrap;html=1;fillColor=#f5f5f5;fontColor=#333333;strokeColor=#666666;" parent="1" vertex="1">
          <mxGeometry x="640" y="400" width="30" height="80" as="geometry" />
        </mxCell>
        <mxCell id="cpac1XOcsCDOn6eUwA3J-14" style="edgeStyle=orthogonalEdgeStyle;rounded=0;orthogonalLoop=1;jettySize=auto;html=1;exitX=1;exitY=0.5;exitDx=0;exitDy=0;entryX=0;entryY=0.5;entryDx=0;entryDy=0;endArrow=none;endFill=0;dashed=1;dashPattern=12 12;" parent="1" source="cpac1XOcsCDOn6eUwA3J-15" target="cpac1XOcsCDOn6eUwA3J-9" edge="1">
          <mxGeometry relative="1" as="geometry" />
        </mxCell>
        <mxCell id="cpac1XOcsCDOn6eUwA3J-15" value="" style="shape=orEllipse;perimeter=ellipsePerimeter;whiteSpace=wrap;html=1;backgroundOutline=1;rounded=1;" parent="1" vertex="1">
          <mxGeometry x="690" y="435" width="10" height="10" as="geometry" />
        </mxCell>
        <mxCell id="cpac1XOcsCDOn6eUwA3J-16" style="edgeStyle=orthogonalEdgeStyle;rounded=1;orthogonalLoop=1;jettySize=auto;html=1;exitX=1;exitY=0.5;exitDx=0;exitDy=0;entryX=0;entryY=0.5;entryDx=0;entryDy=0;endArrow=none;endFill=0;" parent="1" source="cpac1XOcsCDOn6eUwA3J-17" target="cpac1XOcsCDOn6eUwA3J-20" edge="1">
          <mxGeometry relative="1" as="geometry" />
        </mxCell>
        <mxCell id="cpac1XOcsCDOn6eUwA3J-25" style="edgeStyle=orthogonalEdgeStyle;rounded=0;orthogonalLoop=1;jettySize=auto;html=1;exitX=0;exitY=0.5;exitDx=0;exitDy=0;entryX=1;entryY=0.5;entryDx=0;entryDy=0;endArrow=none;endFill=0;" parent="1" source="cpac1XOcsCDOn6eUwA3J-17" target="bO4HwjNe5tgWnpyrZHRT-10" edge="1">
          <mxGeometry relative="1" as="geometry" />
        </mxCell>
        <mxCell id="cpac1XOcsCDOn6eUwA3J-17" value="" style="rounded=1;whiteSpace=wrap;html=1;fillColor=#f5f5f5;fontColor=#333333;strokeColor=#666666;" parent="1" vertex="1">
          <mxGeometry x="560" y="240" width="30" height="80" as="geometry" />
        </mxCell>
        <mxCell id="cpac1XOcsCDOn6eUwA3J-19" style="edgeStyle=orthogonalEdgeStyle;rounded=1;orthogonalLoop=1;jettySize=auto;html=1;exitX=1;exitY=0.5;exitDx=0;exitDy=0;entryX=0;entryY=0.5;entryDx=0;entryDy=0;endArrow=none;endFill=0;" parent="1" source="cpac1XOcsCDOn6eUwA3J-20" target="cpac1XOcsCDOn6eUwA3J-22" edge="1">
          <mxGeometry relative="1" as="geometry" />
        </mxCell>
        <mxCell id="cpac1XOcsCDOn6eUwA3J-28" style="edgeStyle=orthogonalEdgeStyle;rounded=0;orthogonalLoop=1;jettySize=auto;html=1;exitX=0.5;exitY=0;exitDx=0;exitDy=0;entryX=0.5;entryY=0;entryDx=0;entryDy=0;curved=1;endArrow=none;endFill=0;" parent="1" source="cpac1XOcsCDOn6eUwA3J-20" target="cpac1XOcsCDOn6eUwA3J-24" edge="1">
          <mxGeometry relative="1" as="geometry">
            <Array as="points">
              <mxPoint x="615" y="220" />
              <mxPoint x="695" y="220" />
            </Array>
          </mxGeometry>
        </mxCell>
        <mxCell id="cpac1XOcsCDOn6eUwA3J-20" value="" style="shape=orEllipse;perimeter=ellipsePerimeter;whiteSpace=wrap;html=1;backgroundOutline=1;rounded=1;" parent="1" vertex="1">
          <mxGeometry x="610" y="275" width="10" height="10" as="geometry" />
        </mxCell>
        <mxCell id="cpac1XOcsCDOn6eUwA3J-21" style="edgeStyle=orthogonalEdgeStyle;rounded=0;orthogonalLoop=1;jettySize=auto;html=1;exitX=1;exitY=0.5;exitDx=0;exitDy=0;entryX=0;entryY=0.5;entryDx=0;entryDy=0;endArrow=none;endFill=0;" parent="1" source="cpac1XOcsCDOn6eUwA3J-22" target="cpac1XOcsCDOn6eUwA3J-24" edge="1">
          <mxGeometry relative="1" as="geometry" />
        </mxCell>
        <mxCell id="cpac1XOcsCDOn6eUwA3J-22" value="" style="rounded=1;whiteSpace=wrap;html=1;fillColor=#f5f5f5;fontColor=#333333;strokeColor=#666666;" parent="1" vertex="1">
          <mxGeometry x="640" y="240" width="30" height="80" as="geometry" />
        </mxCell>
        <mxCell id="cpac1XOcsCDOn6eUwA3J-24" value="" style="shape=orEllipse;perimeter=ellipsePerimeter;whiteSpace=wrap;html=1;backgroundOutline=1;rounded=1;" parent="1" vertex="1">
          <mxGeometry x="690" y="275" width="10" height="10" as="geometry" />
        </mxCell>
        <mxCell id="cpac1XOcsCDOn6eUwA3J-26" value="$$\hat \Lambda$$" style="rounded=1;whiteSpace=wrap;html=1;fontSize=14;fillColor=#ffe6cc;strokeColor=#d79b00;" parent="1" vertex="1">
          <mxGeometry x="800" y="240" width="30" height="80" as="geometry" />
        </mxCell>
        <mxCell id="cpac1XOcsCDOn6eUwA3J-29" style="edgeStyle=orthogonalEdgeStyle;rounded=0;orthogonalLoop=1;jettySize=auto;html=1;exitX=0.5;exitY=0;exitDx=0;exitDy=0;entryX=0.5;entryY=0;entryDx=0;entryDy=0;curved=1;endArrow=none;endFill=0;" parent="1" edge="1">
          <mxGeometry relative="1" as="geometry">
            <mxPoint x="615" y="435" as="sourcePoint" />
            <mxPoint x="695" y="435" as="targetPoint" />
            <Array as="points">
              <mxPoint x="615" y="380" />
              <mxPoint x="695" y="380" />
            </Array>
          </mxGeometry>
        </mxCell>
        <mxCell id="cpac1XOcsCDOn6eUwA3J-32" style="edgeStyle=orthogonalEdgeStyle;rounded=0;orthogonalLoop=1;jettySize=auto;html=1;exitX=1;exitY=0.5;exitDx=0;exitDy=0;entryX=0;entryY=0.5;entryDx=0;entryDy=0;endArrow=none;endFill=0;" parent="1" source="cpac1XOcsCDOn6eUwA3J-31" target="cpac1XOcsCDOn6eUwA3J-26" edge="1">
          <mxGeometry relative="1" as="geometry" />
        </mxCell>
        <mxCell id="cpac1XOcsCDOn6eUwA3J-31" value="" style="shape=sumEllipse;perimeter=ellipsePerimeter;whiteSpace=wrap;html=1;backgroundOutline=1;" parent="1" vertex="1">
          <mxGeometry x="770" y="275" width="10" height="10" as="geometry" />
        </mxCell>
        <mxCell id="cpac1XOcsCDOn6eUwA3J-33" style="edgeStyle=orthogonalEdgeStyle;rounded=0;orthogonalLoop=1;jettySize=auto;html=1;exitX=0;exitY=0.5;exitDx=0;exitDy=0;entryX=1.281;entryY=0.545;entryDx=0;entryDy=0;entryPerimeter=0;endArrow=none;endFill=0;dashed=1;dashPattern=12 12;" parent="1" source="cpac1XOcsCDOn6eUwA3J-31" target="cpac1XOcsCDOn6eUwA3J-24" edge="1">
          <mxGeometry relative="1" as="geometry" />
        </mxCell>
        <mxCell id="cpac1XOcsCDOn6eUwA3J-34" value="" style="shape=table;startSize=0;container=1;collapsible=0;childLayout=tableLayout;fontSize=11;fillColor=none;strokeColor=none;" parent="1" vertex="1">
          <mxGeometry x="410" y="382" width="90" height="98" as="geometry" />
        </mxCell>
        <mxCell id="cpac1XOcsCDOn6eUwA3J-35" value="" style="shape=tableRow;horizontal=0;startSize=0;swimlaneHead=0;swimlaneBody=0;strokeColor=inherit;top=0;left=0;bottom=0;right=0;collapsible=0;dropTarget=0;fillColor=none;points=[[0,0.5],[1,0.5]];portConstraint=eastwest;fontSize=16;" parent="cpac1XOcsCDOn6eUwA3J-34" vertex="1">
          <mxGeometry width="90" height="30" as="geometry" />
        </mxCell>
        <mxCell id="cpac1XOcsCDOn6eUwA3J-36" value="&lt;div style=&quot;&quot;&gt;&lt;span style=&quot;background-color: initial;&quot;&gt;&lt;font face=&quot;Helvetica&quot; style=&quot;font-size: 10px;&quot;&gt;Softplus function&lt;/font&gt;&lt;/span&gt;&lt;/div&gt;" style="shape=partialRectangle;html=1;whiteSpace=wrap;connectable=0;strokeColor=inherit;overflow=hidden;fillColor=none;top=0;left=0;bottom=0;right=0;pointerEvents=1;fontSize=12;align=left;spacingLeft=5;" parent="cpac1XOcsCDOn6eUwA3J-35" vertex="1">
          <mxGeometry width="90" height="30" as="geometry">
            <mxRectangle width="90" height="30" as="alternateBounds" />
          </mxGeometry>
        </mxCell>
        <mxCell id="cpac1XOcsCDOn6eUwA3J-37" value="" style="shape=tableRow;horizontal=0;startSize=0;swimlaneHead=0;swimlaneBody=0;strokeColor=inherit;top=0;left=0;bottom=0;right=0;collapsible=0;dropTarget=0;fillColor=none;points=[[0,0.5],[1,0.5]];portConstraint=eastwest;fontSize=16;" parent="cpac1XOcsCDOn6eUwA3J-34" vertex="1">
          <mxGeometry y="30" width="90" height="30" as="geometry" />
        </mxCell>
        <mxCell id="cpac1XOcsCDOn6eUwA3J-38" value="&lt;div style=&quot;&quot;&gt;&lt;span style=&quot;background-color: initial;&quot;&gt;&lt;font style=&quot;font-size: 10px;&quot;&gt;LeakyReLU&lt;/font&gt;&lt;/span&gt;&lt;/div&gt;" style="shape=partialRectangle;html=1;whiteSpace=wrap;connectable=0;strokeColor=inherit;overflow=hidden;fillColor=none;top=0;left=0;bottom=0;right=0;pointerEvents=1;fontSize=12;align=left;spacingLeft=5;" parent="cpac1XOcsCDOn6eUwA3J-37" vertex="1">
          <mxGeometry width="90" height="30" as="geometry">
            <mxRectangle width="90" height="30" as="alternateBounds" />
          </mxGeometry>
        </mxCell>
        <mxCell id="cpac1XOcsCDOn6eUwA3J-39" value="" style="shape=tableRow;horizontal=0;startSize=0;swimlaneHead=0;swimlaneBody=0;strokeColor=inherit;top=0;left=0;bottom=0;right=0;collapsible=0;dropTarget=0;fillColor=none;points=[[0,0.5],[1,0.5]];portConstraint=eastwest;fontSize=16;" parent="cpac1XOcsCDOn6eUwA3J-34" vertex="1">
          <mxGeometry y="60" width="90" height="19" as="geometry" />
        </mxCell>
        <mxCell id="cpac1XOcsCDOn6eUwA3J-40" value="" style="shape=partialRectangle;html=1;whiteSpace=wrap;connectable=0;strokeColor=inherit;overflow=hidden;fillColor=none;top=0;left=0;bottom=0;right=0;pointerEvents=1;fontSize=12;align=left;spacingLeft=5;" parent="cpac1XOcsCDOn6eUwA3J-39" vertex="1">
          <mxGeometry width="90" height="19" as="geometry">
            <mxRectangle width="90" height="19" as="alternateBounds" />
          </mxGeometry>
        </mxCell>
        <mxCell id="cpac1XOcsCDOn6eUwA3J-41" style="shape=tableRow;horizontal=0;startSize=0;swimlaneHead=0;swimlaneBody=0;strokeColor=inherit;top=0;left=0;bottom=0;right=0;collapsible=0;dropTarget=0;fillColor=none;points=[[0,0.5],[1,0.5]];portConstraint=eastwest;fontSize=16;" parent="cpac1XOcsCDOn6eUwA3J-34" vertex="1">
          <mxGeometry y="79" width="90" height="19" as="geometry" />
        </mxCell>
        <mxCell id="cpac1XOcsCDOn6eUwA3J-42" value="" style="shape=partialRectangle;html=1;whiteSpace=wrap;connectable=0;strokeColor=inherit;overflow=hidden;fillColor=none;top=0;left=0;bottom=0;right=0;pointerEvents=1;fontSize=12;align=left;spacingLeft=5;" parent="cpac1XOcsCDOn6eUwA3J-41" vertex="1">
          <mxGeometry width="90" height="19" as="geometry">
            <mxRectangle width="90" height="19" as="alternateBounds" />
          </mxGeometry>
        </mxCell>
        <mxCell id="cpac1XOcsCDOn6eUwA3J-45" value="" style="verticalLabelPosition=bottom;verticalAlign=top;html=1;shape=mxgraph.flowchart.or;" parent="1" vertex="1">
          <mxGeometry x="400" y="392" width="10" height="10" as="geometry" />
        </mxCell>
        <mxCell id="cpac1XOcsCDOn6eUwA3J-46" value="" style="verticalLabelPosition=bottom;verticalAlign=top;html=1;shape=mxgraph.flowchart.summing_function;" parent="1" vertex="1">
          <mxGeometry x="400" y="422" width="10" height="10" as="geometry" />
        </mxCell>
      </root>
    </mxGraphModel>
  </diagram>
</mxfile>
